<svg id="svg" xmlns="http://www.w3.org/2000/svg" viewBox="36.66999816894531 27.53000259399414 264.66001892089844 311.65997314453125" height="311.65997314453125"><line x1="56.17" y1="275.86" x2="72.5" y2="140.86" fill="none" stroke="#3794ff" stroke-width="2" d="M 56.17 275.86 L 72.5 140.86"></line><line x1="72.84" y1="140.86" x2="96.67" y2="211.69" fill="none" stroke="#3794ff" stroke-width="2" d="M 72.84 140.86 L 96.67 211.69"></line><line x1="97.01" y1="211.69" x2="110.83" y2="140.86" fill="none" stroke="#3794ff" stroke-width="2" d="M 97.01 211.69 L 110.83 140.86"></line><line x1="111.17" y1="140.86" x2="138.33" y2="278.36" fill="none" stroke="#3794ff" stroke-width="2" d="M 111.17 140.86 L 138.33 278.36"></line><line x1="56.17" y1="277.53" x2="71.67" y2="276.69" fill="none" stroke="#3794ff" stroke-width="2" d="M 56.17 277.53 L 71.67 276.69"></line><line x1="72.01" y1="276.69" x2="79.17" y2="220.86" fill="none" stroke="#3794ff" stroke-width="2" d="M 72.01 276.69 L 79.17 220.86"></line><line x1="79.51" y1="220.86" x2="98.33" y2="245.86" fill="none" stroke="#3794ff" stroke-width="2" d="M 79.51 220.86 L 98.33 245.86"></line><line x1="98.67" y1="245.86" x2="105" y2="218.36" fill="none" stroke="#3794ff" stroke-width="2" d="M 98.67 245.86 L 105 218.36"></line><line x1="105.34" y1="218.36" x2="122.5" y2="283.36" fill="none" stroke="#3794ff" stroke-width="2" d="M 105.34 218.36 L 122.5 283.36"></line><line x1="122.84" y1="283.36" x2="137.5" y2="279.19" fill="none" stroke="#3794ff" stroke-width="2" d="M 122.84 283.36 L 137.5 279.19"></line><circle cx="206.17" cy="215.03" fill="none" stroke="#3794ff" stroke-width="2" r="61.967931222528314" d="M 144.20206877747168 215.03 a 61.967931222528314 61.967931222528314 0 1 0 123.93586244505663 0a 61.967931222528314 61.967931222528314 0 1 0 -123.93586244505663 0 Z"></circle><rect x="46.67" y="110.86" fill="none" stroke="#3794ff" stroke-width="2" width="244.66000000000003" height="218.33" rx="10" ry="10" d="M 46.67 120.86 a 10 10 0 0 1 10 -10 h 224.66000000000003 a 10 10 0 0 1 10 10 v 198.33 a 10 10 0 0 1 -10 10 h -224.66000000000003 a 10 10 0 0 1 -10 -10 Z"></rect><rect x="212.5" y="37.53" fill="none" stroke="#3794ff" stroke-width="2" width="2.8400000000000034" height="1.6700000000000017" rx="10" ry="10" d="M 212.5 38.365 a 1.4200000000000017 0.8350000000000009 0 0 1 1.4200000000000017 -0.8350000000000009 h 0 a 1.4200000000000017 0.8350000000000009 0 0 1 1.4200000000000017 0.8350000000000009 v 0 a 1.4200000000000017 0.8350000000000009 0 0 1 -1.4200000000000017 0.8350000000000009 h 0 a 1.4200000000000017 0.8350000000000009 0 0 1 -1.4200000000000017 -0.8350000000000009 Z"></rect></svg>